<svg xmlns="http://www.w3.org/2000/svg" viewBox="0 0 720 460" role="img" aria-labelledby="title desc">
  <title id="title">KEP Schedule ecosystem preview</title>
  <desc id="desc">Android schedule app, Telegram bot, and college timetable rows.</desc>
  <defs>
    <linearGradient id="bg" x1="0" y1="0" x2="1" y2="1">
      <stop offset="0" stop-color="#f97316"/>
      <stop offset="1" stop-color="#be123c"/>
    </linearGradient>
  </defs>
  <rect width="720" height="460" rx="34" fill="url(#bg)"/>
  <path d="M60 92h600v276H60z" fill="#fff" opacity=".12"/>
  <rect x="96" y="72" width="172" height="324" rx="34" fill="#111827"/>
  <rect x="112" y="110" width="140" height="244" rx="18" fill="#fff"/>
  <text x="132" y="146" fill="#111827" font-family="Arial, sans-serif" font-size="22" font-weight="800">KEP</text>
  <rect x="130" y="174" width="104" height="24" rx="7" fill="#f97316"/>
  <rect x="130" y="212" width="104" height="22" rx="7" fill="#fed7aa"/>
  <rect x="130" y="248" width="104" height="22" rx="7" fill="#fed7aa"/>
  <rect x="130" y="284" width="104" height="22" rx="7" fill="#fed7aa"/>
  <rect x="326" y="116" width="258" height="212" rx="26" fill="#fff"/>
  <path d="M378 178h154M378 222h126M378 266h168" stroke="#111827" stroke-width="18" stroke-linecap="round" opacity=".18"/>
  <circle cx="360" cy="178" r="12" fill="#f97316"/>
  <circle cx="360" cy="222" r="12" fill="#be123c"/>
  <circle cx="360" cy="266" r="12" fill="#f97316"/>
  <path d="M562 94l70 38-70 36 18-38z" fill="#fff" opacity=".9"/>
  <text x="320" y="374" fill="#fff" font-family="Arial, sans-serif" font-size="30" font-weight="800">APK + Telegram bot + updates</text>
</svg>
