<svg xmlns="http://www.w3.org/2000/svg" viewBox="0 0 720 460" role="img" aria-labelledby="title desc">
  <title id="title">MEDUZA ESP-NOW preview</title>
  <desc id="desc">ESP32 transmitter and receiver exchange MPU6050 motion data over ESP-NOW.</desc>
  <defs>
    <linearGradient id="bg" x1="0" y1="0" x2="1" y2="1">
      <stop offset="0" stop-color="#8b5cf6"/>
      <stop offset="1" stop-color="#db2777"/>
    </linearGradient>
  </defs>
  <rect width="720" height="460" rx="34" fill="url(#bg)"/>
  <rect x="104" y="132" width="174" height="174" rx="30" fill="#111827"/>
  <rect x="442" y="132" width="174" height="174" rx="30" fill="#111827"/>
  <rect x="138" y="174" width="106" height="72" rx="14" fill="#ede9fe"/>
  <rect x="476" y="174" width="106" height="72" rx="14" fill="#fce7f3"/>
  <circle cx="191" cy="276" r="13" fill="#8b5cf6"/>
  <circle cx="529" cy="276" r="13" fill="#db2777"/>
  <path d="M298 180c46-46 78-46 124 0M318 222c26-26 58-26 84 0M338 264c10-10 34-10 44 0" fill="none" stroke="#fff" stroke-width="13" stroke-linecap="round" opacity=".82"/>
  <text x="132" y="94" fill="#fff" font-family="Arial, sans-serif" font-size="28" font-weight="800">MPU6050</text>
  <text x="464" y="94" fill="#fff" font-family="Arial, sans-serif" font-size="28" font-weight="800">Receiver</text>
  <text x="104" y="420" fill="#fff" font-family="Arial, sans-serif" font-size="30" font-weight="800">Motion data over ESP-NOW</text>
</svg>
