<svg xmlns="http://www.w3.org/2000/svg" viewBox="0 0 720 460" role="img" aria-labelledby="title desc">
  <title id="title">MusicByKico Discord bot preview</title>
  <desc id="desc">Discord voice channel music bot with queue, player, and waveform.</desc>
  <defs>
    <linearGradient id="bg" x1="0" y1="0" x2="1" y2="1">
      <stop offset="0" stop-color="#eab308"/>
      <stop offset="1" stop-color="#16a34a"/>
    </linearGradient>
  </defs>
  <rect width="720" height="460" rx="34" fill="url(#bg)"/>
  <rect x="86" y="80" width="548" height="300" rx="30" fill="#111827"/>
  <rect x="114" y="118" width="118" height="224" rx="18" fill="#1f2937"/>
  <circle cx="146" cy="152" r="14" fill="#eab308"/>
  <circle cx="146" cy="198" r="14" fill="#22c55e"/>
  <circle cx="146" cy="244" r="14" fill="#eab308"/>
  <rect x="270" y="126" width="290" height="58" rx="20" fill="#fff"/>
  <path d="M308 156h174" stroke="#111827" stroke-width="13" stroke-linecap="round" opacity=".24"/>
  <rect x="270" y="218" width="290" height="82" rx="24" fill="#ffffff" opacity=".14"/>
  <path d="M302 262h20l10-26 22 52 22-74 22 48h96" stroke="#fef3c7" stroke-width="9" stroke-linecap="round" stroke-linejoin="round" fill="none"/>
  <circle cx="552" cy="156" r="18" fill="#16a34a"/>
  <path d="M548 146l18 10-18 10z" fill="#fff"/>
  <text x="88" y="424" fill="#fff" font-family="Arial, sans-serif" font-size="30" font-weight="800">Discord voice music queue</text>
</svg>
