<svg xmlns="http://www.w3.org/2000/svg" viewBox="0 0 720 460" role="img" aria-labelledby="title desc">
  <title id="title">PIDron calculator preview</title>
  <desc id="desc">Drone PID calculator with sliders, values, and flight controller flashing workflow.</desc>
  <defs>
    <linearGradient id="bg" x1="0" y1="0" x2="1" y2="1">
      <stop offset="0" stop-color="#3b82f6"/>
      <stop offset="1" stop-color="#0f766e"/>
    </linearGradient>
  </defs>
  <rect width="720" height="460" rx="34" fill="url(#bg)"/>
  <rect x="76" y="90" width="332" height="270" rx="26" fill="#0f172a"/>
  <rect x="106" y="132" width="232" height="22" rx="11" fill="#e0f2fe"/>
  <rect x="106" y="182" width="260" height="16" rx="8" fill="#475569"/>
  <rect x="106" y="230" width="226" height="16" rx="8" fill="#475569"/>
  <rect x="106" y="278" width="286" height="16" rx="8" fill="#475569"/>
  <circle cx="286" cy="190" r="17" fill="#38bdf8"/>
  <circle cx="234" cy="238" r="17" fill="#2dd4bf"/>
  <circle cx="340" cy="286" r="17" fill="#38bdf8"/>
  <rect x="456" y="132" width="148" height="148" rx="24" fill="#fff"/>
  <path d="M530 168v76M492 206h76M492 168l76 76M568 168l-76 76" stroke="#0f766e" stroke-width="12" stroke-linecap="round"/>
  <circle cx="492" cy="168" r="22" fill="#e0f2fe"/>
  <circle cx="568" cy="168" r="22" fill="#e0f2fe"/>
  <circle cx="492" cy="244" r="22" fill="#e0f2fe"/>
  <circle cx="568" cy="244" r="22" fill="#e0f2fe"/>
  <path d="M408 302h156l30 34" fill="none" stroke="#fff" stroke-width="12" stroke-linecap="round"/>
  <text x="78" y="418" fill="#fff" font-family="Arial, sans-serif" font-size="30" font-weight="800">PID calculator + firmware flashing</text>
</svg>
