<svg xmlns="http://www.w3.org/2000/svg" viewBox="0 0 720 460" role="img" aria-labelledby="title desc">
  <title id="title">Ye-Ruka robotic hand preview</title>
  <desc id="desc">Camera gesture interface, glove input, and ESP32 robotic hand controls.</desc>
  <defs>
    <linearGradient id="bg" x1="0" y1="0" x2="1" y2="1">
      <stop offset="0" stop-color="#ef4444"/>
      <stop offset="1" stop-color="#f59e0b"/>
    </linearGradient>
  </defs>
  <rect width="720" height="460" rx="34" fill="url(#bg)"/>
  <rect x="78" y="82" width="360" height="286" rx="26" fill="#111827"/>
  <rect x="106" y="126" width="200" height="150" rx="18" fill="#f8fafc"/>
  <circle cx="206" cy="202" r="42" fill="#fee2e2"/>
  <path d="M178 206c20 26 46 26 66 0M206 178v48" stroke="#ef4444" stroke-width="9" stroke-linecap="round" fill="none"/>
  <rect x="326" y="126" width="78" height="150" rx="18" fill="#1f2937"/>
  <path d="M354 244v-76M374 244v-92M394 244v-68M334 244v-50" stroke="#fff7ed" stroke-width="12" stroke-linecap="round"/>
  <rect x="486" y="128" width="120" height="164" rx="30" fill="#fff"/>
  <path d="M520 258v-82M546 258v-106M572 258v-72" stroke="#ef4444" stroke-width="14" stroke-linecap="round"/>
  <rect x="486" y="310" width="120" height="24" rx="12" fill="#fff" opacity=".5"/>
  <text x="80" y="418" fill="#fff" font-family="Arial, sans-serif" font-size="30" font-weight="800">Camera gestures + glove + ESP32</text>
</svg>
